<svg xmlns="http://www.w3.org/2000/svg" width="48" height="48" viewBox="0 0 48 48" fill="none">
  <rect width="48" height="48" rx="12" fill="#4361EE"/>
  <path d="M16 14C16 12.8954 16.8954 12 18 12H30C31.1046 12 32 12.8954 32 14V34C32 35.1046 31.1046 36 30 36H18C16.8954 36 16 35.1046 16 34V14Z" fill="white"/>
  <rect x="19" y="16" width="10" height="2" rx="1" fill="#4361EE"/>
  <rect x="19" y="20" width="10" height="2" rx="1" fill="#4361EE"/>
  <rect x="19" y="24" width="10" height="2" rx="1" fill="#4361EE"/>
  <rect x="19" y="28" width="10" height="2" rx="1" fill="#4361EE"/>
  <rect x="19" y="32" width="6" height="2" rx="1" fill="#4361EE"/>
</svg> 